<?xml version="1.0" encoding="UTF-8" standalone="no" ?>
<!DOCTYPE svg PUBLIC "-//W3C//DTD SVG 1.1//EN" "http://www.w3.org/Graphics/SVG/1.1/DTD/svg11.dtd">
<svg xmlns="http://www.w3.org/2000/svg" xmlns:xlink="http://www.w3.org/1999/xlink" version="1.1" width="500" height="500" viewBox="0 0 500 500" xml:space="preserve">
<desc>Created with Fabric.js 4.6.0</desc>
<defs>
</defs>
<g transform="matrix(1.41 0 0 1.41 170.59 169.88)" style="" id="2gWHT7xznnDnW5H8WoauI"  >
		<text xml:space="preserve" font-family="MedievalSharp" font-size="40" font-style="normal" font-weight="normal" line-height="2" style="stroke: none; stroke-width: 1; stroke-dasharray: none; stroke-linecap: butt; stroke-dashoffset: 0; stroke-linejoin: miter; stroke-miterlimit: 4; fill: rgb(255,255,255); fill-rule: nonzero; opacity: 1; white-space: pre;" ><tspan x="-85.07" y="12.57" style="white-space: pre; ">M    Code</tspan></text>
</g>
<g transform="matrix(0.31 0 0 0.31 120.86 166.39)" id="1DgGxPrsWp-dwdiyvK_B3"  >
<path style="stroke: none; stroke-width: 1; stroke-dasharray: none; stroke-linecap: butt; stroke-dashoffset: 0; stroke-linejoin: miter; stroke-miterlimit: 4; fill: rgb(255,255,255); fill-rule: evenodd; opacity: 1;" vector-effect="non-scaling-stroke"  transform=" translate(-65.33, -79)" d="M 49.126612 32.767821 C 29.622502 29.215470999999997 14.201376000000003 32.933482999999995 8.0552469 43.578891 C 3.4688677000000006 51.522732 4.779847 62.054942999999994 11.234633 73.313229 C 11.784031 74.27147500000001 13.006218 74.602913 13.964464 74.053515 C 14.922711 73.504118 15.254147999999999 72.281931 14.704749999999999 71.323684 C 8.8902049 61.182091 7.7587793 52.092388 11.519349 45.578891 C 16.624964 36.735704999999996 30.380342 33.419303 48.409869 36.703081999999995 C 49.496562 36.901005 50.537948 36.18051499999999 50.735871 35.09382299999999 C 50.933794000000006 34.00713 50.213304 32.965743999999994 49.126612 32.76782099999999 L 49.126612 32.76782099999999 z M 21.377419 86.997598 C 29.263793 95.66413899999999 39.50951 103.79292 51.194174000000004 110.53905999999999 C 79.486738 126.87378 109.60617 131.23985 124.45028 121.11829999999999 C 125.36289000000001 120.49602999999999 125.59825000000001 119.25175999999999 124.97598 118.33914999999999 C 124.35371 117.42654999999999 123.10945000000001 117.19117999999999 122.19684000000001 117.81344999999999 C 108.91154 126.87212 80.300262 122.72466999999999 53.194174000000004 107.07495999999999 C 41.858736 100.53044 31.937517 92.659114 24.335871 84.305468 C 23.592459 83.488514 22.327534 83.428896 21.51058 84.172307 C 20.693626000000002 84.91571900000001 20.634008 86.180644 21.377419 86.99759800000001 L 21.377419 86.99759800000001 z" stroke-linecap="round" />
</g>
<g transform="matrix(0.31 0 0 0.31 122.15 163.67)" id="CgigluGdom-UQjF5mNwrO"  >
<path style="stroke: none; stroke-width: 1; stroke-dasharray: none; stroke-linecap: butt; stroke-dashoffset: 0; stroke-linejoin: miter; stroke-miterlimit: 4; fill: rgb(255,255,255); fill-rule: evenodd; opacity: 1;" vector-effect="non-scaling-stroke"  transform=" translate(-69.46, -70.3)" d="M 119.71503 84.564556 C 132.48585 69.47782799999999 136.94497 54.303971999999995 130.8115 43.680485 C 126.29838 35.863523 116.7575 31.736494999999998 104.07782999999999 31.571593999999997 C 102.97335 31.557233999999998 102.06635999999999 32.440940999999995 102.05198999999999 33.545417 C 102.03759 34.649893 102.92133999999999 35.556892 104.02580999999999 35.571256 C 115.42957999999999 35.719563 123.64923999999999 39.275082999999995 127.3474 45.680485 C 132.44198 54.504560999999995 128.46543 68.03626299999999 116.66198999999999 81.980183 C 115.94833999999999 82.823255 116.05324999999999 84.08523199999999 116.89631999999999 84.798886 C 117.73939999999999 85.512541 119.00137 85.407628 119.71502999999998 84.564556 L 119.71502999999998 84.564556 z M 86.894173 33.433796 C 75.347248 35.907775 63.056587 40.744903 51.252829 47.559806 C 22.0461 64.422319 2.9938875 89.286699 5.6399215 107.31563 C 5.8003164 108.40849 6.8162819 109.1644 7.9091439 109.00401 C 9.0020058 108.84361 9.757919600000001 107.82764999999999 9.597524700000001 106.73478999999999 C 7.2481256 90.726999 25.307756 67.158003 53.252829 51.023907 C 64.703412 44.41291 76.604054 39.729279 87.732172 37.345031 C 88.81223 37.113624 89.500197 36.050471 89.26879000000001 34.970414 C 89.037383 33.890356 87.974231 33.202389 86.89417300000001 33.433796 L 86.89417300000001 33.433796 z" stroke-linecap="round" />
</g>
<g transform="matrix(0.31 0 0 0.31 123.16 166.68)" id="m2VFlF4UnSvFRXQ2_MT0s"  >
<path style="stroke: none; stroke-width: 1; stroke-dasharray: none; stroke-linecap: butt; stroke-dashoffset: 0; stroke-linejoin: miter; stroke-miterlimit: 4; fill: rgb(255,255,255); fill-rule: evenodd; opacity: 1;" vector-effect="non-scaling-stroke"  transform=" translate(-72.67, -79.92)" d="M 39.578157 119.81497 C 46.255336 138.46006 57.179197 149.93972 69.462702 149.93972 C 78.421292 149.93972 86.709744 143.83293 93.173031 133.08146 C 93.74212999999999 132.13478 93.436042 130.906 92.489364 130.33689999999999 C 91.54268599999999 129.7678 90.31390499999999 130.07388999999998 89.744806 131.02057 C 83.93626 140.6829 76.801428 145.93972 69.462702 145.93972 C 59.25910199999999 145.93972 49.515981999999994 135.70087 43.34395699999999 118.46636 C 42.97154899999999 117.42645999999999 41.82664999999999 116.88535999999999 40.786751999999986 117.25775999999999 C 39.74685499999998 117.63016999999999 39.20574899999998 118.77506999999999 39.57815699999998 119.81496999999999 L 39.57815699999998 119.81496999999999 z M 100.5693 116.16778000000001 C 104.02595 105.12164000000001 105.88245 92.378906 105.88245 79.10023100000001 C 105.88245 45.96615400000001 94.28567500000001 17.403334000000008 77.767605 10.068809000000002 C 76.758081 9.620549900000002 75.57631500000001 10.075509000000002 75.128056 11.085068000000001 C 74.67979700000001 12.094591000000001 75.134756 13.276358000000002 76.144315 13.724617000000002 C 90.87643700000001 20.266126 101.88245 47.373902 101.88245 79.10023100000001 C 101.88245 91.982708 100.08458 104.32306000000001 96.75185 114.97319000000002 C 96.42197300000001 116.02735000000001 97.009122 117.14934000000002 98.063283 117.47921000000002 C 99.117443 117.80909000000003 100.23943 117.22194000000002 100.5693 116.16778000000002 L 100.5693 116.16778000000002 z" stroke-linecap="round" />
</g>
<g transform="matrix(0.31 0 0 0.31 140.65 177.39)" id="566TAwGw1ifoxOqI7TOx7"  >
<path style="stroke: none; stroke-width: 1; stroke-dasharray: none; stroke-linecap: butt; stroke-dashoffset: 0; stroke-linejoin: miter; stroke-miterlimit: 4; fill: rgb(255,255,255); fill-rule: evenodd; opacity: 1;" vector-effect="non-scaling-stroke"  transform=" translate(-128.66, -114.21)" d="M 138.23701 114.20837 C 138.23701 108.92171 133.95132 104.63603 128.66467 104.63603 C 123.37801 104.63603 119.09232 108.92171 119.09232 114.20837 C 119.09232 119.49503 123.37801 123.78072 128.66467 123.78072 C 133.95132 123.78072 138.23701 119.49503 138.23701 114.20837 L 138.23701 114.20837 z M 134.23701 114.20837 C 134.23701 117.28589 131.74219 119.78072 128.66467 119.78072 C 125.58715000000001 119.78072 123.09232 117.28589000000001 123.09232 114.20837 C 123.09232 111.13085000000001 125.58715 108.63603 128.66467 108.63603 C 131.74219 108.63603 134.23701 111.13085000000001 134.23701 114.20837 L 134.23701 114.20837 z" stroke-linecap="round" />
</g>
<g transform="matrix(0.31 0 0 0.31 103.61 177.39)" id="Bbg8FyOfZSiKe1K05jflE"  >
<path style="stroke: none; stroke-width: 1; stroke-dasharray: none; stroke-linecap: butt; stroke-dashoffset: 0; stroke-linejoin: miter; stroke-miterlimit: 4; fill: rgb(255,255,255); fill-rule: evenodd; opacity: 1;" vector-effect="non-scaling-stroke"  transform=" translate(-10.12, -114.21)" d="M 10.123062 123.78072 C 15.409721999999999 123.78072 19.695406 119.49503 19.695406 114.20837 C 19.695406 108.92171 15.409721999999999 104.63603 10.123062 104.63603 C 4.836402499999999 104.63603 0.5507180399999996 108.92171 0.5507180399999996 114.20837 C 0.5507180399999996 119.49503 4.836402499999999 123.78072 10.123062 123.78072 L 10.123062 123.78072 z M 10.123062 119.78072 C 7.045541499999999 119.78072 4.550717999999999 117.28589000000001 4.550717999999999 114.20837 C 4.550717999999999 111.13085000000001 7.045541499999999 108.63603 10.123062 108.63603 C 13.200582999999998 108.63603 15.695405999999998 111.13085000000001 15.695405999999998 114.20837 C 15.695405999999998 117.28589 13.200582999999998 119.78072 10.123061999999997 119.78072 L 10.123061999999997 119.78072 z" stroke-linecap="round" />
</g>
<g transform="matrix(0.31 0 0 0.31 122.15 144.92)" id="-5Io5OpISeSBdH_JGOChH"  >
<path style="stroke: none; stroke-width: 1; stroke-dasharray: none; stroke-linecap: butt; stroke-dashoffset: 0; stroke-linejoin: miter; stroke-miterlimit: 4; fill: rgb(255,255,255); fill-rule: evenodd; opacity: 1;" vector-effect="non-scaling-stroke"  transform=" translate(-69.46, -10.26)" d="M 69.462702 19.833083 C 74.74936199999999 19.833083 79.035046 15.547398999999999 79.035046 10.260739 C 79.035046 4.974079399999999 74.74936199999999 0.6883949199999986 69.462702 0.6883949199999986 C 64.17604299999999 0.6883949199999986 59.89035799999999 4.974079399999998 59.89035799999999 10.260739 C 59.89035799999999 15.547398999999999 64.17604299999999 19.833083 69.462702 19.833083 L 69.462702 19.833083 z M 69.462702 15.833082999999998 C 66.38518199999999 15.833082999999998 63.89035799999999 13.338259999999998 63.89035799999999 10.260738999999997 C 63.89035799999999 7.183218399999998 66.38518199999999 4.688394899999998 69.462702 4.688394899999998 C 72.540223 4.688394899999998 75.035046 7.183218399999998 75.035046 10.260738999999997 C 75.035046 13.338259999999998 72.540223 15.833082999999998 69.462702 15.833082999999998 L 69.462702 15.833082999999998 z" stroke-linecap="round" />
</g>
<g transform="matrix(0.31 0 0 0.31 122.15 166.42)" id="eQys6RZeRUdOb3LicQY91"  >
<path style="stroke: none; stroke-width: 1; stroke-dasharray: none; stroke-linecap: butt; stroke-dashoffset: 0; stroke-linejoin: miter; stroke-miterlimit: 4; fill: rgb(255,255,255); fill-rule: evenodd; opacity: 1;" vector-effect="non-scaling-stroke"  transform=" translate(-69.46, -79.1)" d="M 70.924806 85.869678 C 67.18596000000001 86.677522 63.502445 84.301418 62.693020000000004 80.56257099999999 C 61.886757 76.823724 64.26128 73.140209 68.000127 72.330784 C 71.73897400000001 71.52294099999999 75.42248900000001 73.899045 76.231914 77.637892 C 77.03975700000001 81.37673799999999 74.663653 85.06025299999999 70.924806 85.869678 z" stroke-linecap="round" />
</g>
</svg>